<?xml version="1.0" standalone="no"?>
<!DOCTYPE svg PUBLIC "-//W3C//DTD SVG 20010904//EN"
 "http://www.w3.org/TR/2001/REC-SVG-20010904/DTD/svg10.dtd">
<svg version="1.0" xmlns="http://www.w3.org/2000/svg"
 width="300.000000pt" height="300.000000pt" viewBox="0 0 300.000000 300.000000"
 preserveAspectRatio="xMidYMid meet">
<metadata>
Created by potrace 1.10, written by Peter Selinger 2001-2011
</metadata>
<g transform="translate(0.000000,300.000000) scale(0.100000,-0.100000)"
fill="#000000" stroke="none">
<path d="M336 1659 c-9 -49 -8 -52 17 -25 12 14 33 26 47 28 l25 3 3 -101 c2
-81 0 -105 -13 -117 -8 -9 -15 -17 -15 -19 0 -2 20 -3 45 -3 25 0 45 3 45 8 0
4 -4 7 -10 7 -6 0 -10 45 -10 116 0 102 2 115 16 110 9 -3 20 -6 25 -6 6 0 22
-12 36 -27 18 -20 24 -22 20 -10 -4 11 -10 30 -13 43 -6 23 -9 24 -109 24
l-102 0 -7 -31z"/>
<path d="M588 1678 c15 -15 17 -238 2 -238 -5 0 -10 -3 -10 -7 0 -5 20 -8 45
-8 25 0 45 3 45 8 0 4 -4 7 -10 7 -15 0 -13 223 2 238 9 9 1 12 -37 12 -38 0
-46 -3 -37 -12z"/>
<path d="M758 1672 c-31 -18 -58 -67 -58 -103 0 -12 9 -42 21 -65 25 -53 82
-84 155 -84 48 0 51 2 67 35 24 51 21 61 -8 27 -32 -38 -65 -46 -110 -28 -72
30 -98 127 -49 185 37 44 104 40 141 -8 15 -20 17 -2 3 33 -9 24 -14 26 -72
26 -42 0 -72 -6 -90 -18z"/>
<path d="M988 1678 c15 -15 17 -238 2 -238 -5 0 -10 -3 -10 -7 0 -5 20 -8 45
-8 41 0 59 8 36 17 -5 2 -11 29 -12 61 -2 43 2 62 14 74 15 16 18 15 36 -1 30
-27 64 -103 57 -129 -5 -20 -1 -22 39 -22 39 0 42 1 31 15 -8 8 -23 36 -34 62
-11 26 -33 64 -48 83 -31 41 -26 52 39 84 l42 21 -53 0 c-36 0 -51 -4 -46 -11
7 -11 -38 -64 -70 -81 -17 -9 -18 -7 -11 34 4 23 13 46 19 50 6 4 -11 8 -38 8
-39 0 -47 -3 -38 -12z"/>
<path d="M1347 1683 c-3 -5 -8 -24 -12 -42 l-7 -35 23 26 c13 14 36 29 52 32
l27 6 0 -107 c0 -78 -4 -111 -14 -122 -13 -14 -10 -16 34 -16 44 0 47 2 34 16
-10 11 -14 44 -14 122 l0 107 28 -6 c15 -3 37 -18 50 -33 22 -25 23 -25 18 -3
-18 67 -9 62 -116 62 -54 0 -101 -3 -103 -7z"/>
<path d="M1635 1659 c-80 -71 -60 -191 38 -228 91 -35 187 28 187 122 0 81
-58 137 -142 137 -39 0 -54 -6 -83 -31z m134 -15 c65 -54 62 -162 -6 -190 -28
-12 -38 -12 -60 -2 -44 22 -68 64 -68 118 0 90 70 128 134 74z"/>
<path d="M1903 1679 c15 -9 17 -26 17 -124 0 -70 -4 -115 -10 -115 -5 0 -10
-3 -10 -7 0 -5 20 -8 45 -8 50 0 51 0 30 21 -9 10 -15 35 -15 67 0 42 4 55 21
65 26 17 37 8 73 -58 18 -32 26 -59 22 -73 -5 -21 -2 -22 33 -19 l37 4 -24 51
c-14 29 -38 71 -54 95 -34 50 -31 59 35 91 l42 21 -53 0 c-35 0 -51 -4 -47
-11 8 -12 -17 -42 -59 -72 l-29 -21 6 44 c3 23 11 47 19 51 8 5 -8 9 -42 9
-42 -1 -51 -3 -37 -11z"/>
<path d="M2174 1674 c13 -12 16 -38 16 -118 0 -62 -4 -106 -11 -113 -9 -9 13
-12 84 -15 l96 -3 16 40 c21 56 20 58 -20 18 -30 -30 -39 -34 -77 -31 l-43 3
-3 71 -3 71 31 -5 c17 -2 37 -13 43 -23 19 -31 25 -22 14 25 -9 38 -12 42 -24
30 -8 -8 -25 -14 -39 -14 -19 0 -24 5 -24 24 0 14 5 28 11 31 20 13 81 -6 106
-33 l25 -27 -7 35 c-4 19 -9 38 -12 43 -2 4 -47 7 -99 7 -87 0 -94 -1 -80 -16z"/>
<path d="M2413 1679 c14 -9 17 -26 17 -119 0 -62 -4 -111 -10 -115 -19 -12
-10 -20 25 -20 33 0 47 9 26 17 -8 3 -21 208 -13 208 2 0 35 -26 73 -57 68
-56 69 -58 69 -105 0 -26 -4 -48 -10 -48 -5 0 -10 -3 -10 -7 0 -5 16 -8 35 -8
19 0 35 3 35 8 0 4 -4 7 -10 7 -15 0 -13 223 2 238 9 9 2 12 -32 12 -36 -1
-41 -3 -27 -11 12 -7 17 -22 17 -50 l0 -40 -50 42 c-27 23 -47 46 -44 50 3 5
-21 9 -53 9 -44 -1 -54 -3 -40 -11z"/>
<path d="M1285 1541 c-24 -4 -41 -12 -43 -21 -4 -25 85 -14 91 11 3 10 2 18
-1 18 -4 -1 -25 -5 -47 -8z"/>
</g>
</svg>
